<svg width="104" height="24" viewBox="0 0 104 24" fill="none" xmlns="http://www.w3.org/2000/svg">
<g clip-path="url(#clip0_5_1180)">
<path opacity="0.1" fill-rule="evenodd" clip-rule="evenodd" d="M0 12C0 5.37258 5.37258 0 12 0C18.6274 0 24 5.37258 24 12C24 18.6274 18.6274 24 12 24C5.37258 24 0 18.6274 0 12Z" fill="white"/>
<path fill-rule="evenodd" clip-rule="evenodd" d="M12.0007 5.60001C10.2625 5.60001 10.0444 5.60761 9.36174 5.63867C8.6804 5.66987 8.21533 5.77774 7.80839 5.93601C7.38745 6.09948 7.03038 6.31815 6.67464 6.67402C6.31864 7.02975 6.09997 7.38682 5.93597 7.80763C5.7773 8.2147 5.6693 8.6799 5.63863 9.36098C5.6081 10.0437 5.6001 10.2619 5.6001 12.0001C5.6001 13.7382 5.60783 13.9557 5.63876 14.6384C5.6701 15.3197 5.77797 15.7848 5.9361 16.1917C6.0997 16.6127 6.31837 16.9697 6.67424 17.3255C7.02985 17.6815 7.38692 17.9007 7.80759 18.0641C8.21479 18.2224 8.68 18.3303 9.3612 18.3615C10.0439 18.3925 10.2619 18.4001 11.9999 18.4001C13.7382 18.4001 13.9557 18.3925 14.6383 18.3615C15.3197 18.3303 15.7853 18.2224 16.1925 18.0641C16.6133 17.9007 16.9698 17.6815 17.3254 17.3255C17.6814 16.9697 17.9001 16.6127 18.0641 16.1918C18.2214 15.7848 18.3294 15.3196 18.3614 14.6385C18.3921 13.9558 18.4001 13.7382 18.4001 12.0001C18.4001 10.2619 18.3921 10.0438 18.3614 9.36111C18.3294 8.67977 18.2214 8.2147 18.0641 7.80776C17.9001 7.38682 17.6814 7.02975 17.3254 6.67402C16.9694 6.31801 16.6134 6.09934 16.1921 5.93601C15.7841 5.77774 15.3187 5.66987 14.6374 5.63867C13.9547 5.60761 13.7374 5.60001 11.9987 5.60001H12.0007ZM11.4265 6.75333C11.5969 6.75307 11.7871 6.75333 12.0007 6.75333C13.7095 6.75333 13.912 6.75947 14.5868 6.79013C15.2108 6.81867 15.5495 6.92294 15.7751 7.01054C16.0738 7.12654 16.2867 7.26521 16.5106 7.48921C16.7346 7.71321 16.8733 7.92655 16.9895 8.22522C17.0771 8.45055 17.1815 8.78922 17.2099 9.41323C17.2406 10.0879 17.2473 10.2906 17.2473 11.9986C17.2473 13.7066 17.2406 13.9093 17.2099 14.5839C17.1814 15.208 17.0771 15.5466 16.9895 15.772C16.8735 16.0706 16.7346 16.2833 16.5106 16.5072C16.2866 16.7312 16.0739 16.8698 15.7751 16.9858C15.5498 17.0738 15.2108 17.1778 14.5868 17.2064C13.9122 17.237 13.7095 17.2437 12.0007 17.2437C10.2917 17.2437 10.0892 17.237 9.41451 17.2064C8.7905 17.1776 8.45183 17.0733 8.2261 16.9857C7.92743 16.8697 7.71409 16.731 7.49009 16.507C7.26609 16.283 7.12742 16.0702 7.01115 15.7714C6.92355 15.5461 6.81915 15.2074 6.79075 14.5834C6.76008 13.9087 6.75395 13.7061 6.75395 11.997C6.75395 10.2879 6.76008 10.0863 6.79075 9.41163C6.81928 8.78762 6.92355 8.44895 7.01115 8.22335C7.12715 7.92468 7.26609 7.71134 7.49009 7.48734C7.71409 7.26334 7.92743 7.12467 8.2261 7.0084C8.4517 6.9204 8.7905 6.8164 9.41451 6.78773C10.0049 6.76107 10.2337 6.75307 11.4265 6.75173V6.75333ZM15.417 7.81601C14.993 7.81601 14.649 8.15962 14.649 8.58376C14.649 9.00776 14.993 9.35176 15.417 9.35176C15.841 9.35176 16.185 9.00776 16.185 8.58376C16.185 8.15975 15.841 7.81601 15.417 7.81601ZM12.0007 8.71335C10.1856 8.71335 8.71401 10.185 8.71401 12.0001C8.71401 13.8151 10.1856 15.2861 12.0007 15.2861C13.8158 15.2861 15.2869 13.8151 15.2869 12.0001C15.2869 10.185 13.8158 8.71335 12.0007 8.71335ZM12.0007 9.8667C13.1788 9.8667 14.134 10.8218 14.134 12.0001C14.134 13.1782 13.1788 14.1334 12.0007 14.1334C10.8224 14.1334 9.86733 13.1782 9.86733 12.0001C9.86733 10.8218 10.8224 9.8667 12.0007 9.8667Z" fill="white"/>
<path opacity="0.1" fill-rule="evenodd" clip-rule="evenodd" d="M40 12C40 5.37258 45.3726 0 52 0C58.6274 0 64 5.37258 64 12C64 18.6274 58.6274 24 52 24C45.3726 24 40 18.6274 40 12Z" fill="white"/>
<path fill-rule="evenodd" clip-rule="evenodd" d="M51.6406 9.75375L51.6658 10.169L51.2461 10.1181C49.7184 9.92323 48.3838 9.26225 47.2507 8.15216L46.6967 7.60135L46.554 8.0081C46.2518 8.91482 46.4449 9.87238 47.0744 10.5164C47.4102 10.8723 47.3346 10.9232 46.7554 10.7113C46.554 10.6435 46.3777 10.5927 46.3609 10.6181C46.3022 10.6774 46.5036 11.4486 46.6631 11.7536C46.8813 12.1773 47.3262 12.5925 47.8131 12.8383L48.2243 13.0332L47.7375 13.0417C47.2675 13.0417 47.2507 13.0501 47.301 13.2281C47.4689 13.7789 48.132 14.3636 48.8707 14.6178L49.3911 14.7958L48.9378 15.067C48.2663 15.4568 47.4773 15.6771 46.6883 15.694C46.3106 15.7025 46 15.7364 46 15.7618C46 15.8466 47.024 16.3211 47.62 16.5075C49.4079 17.0584 51.5315 16.8211 53.1263 15.8805C54.2595 15.211 55.3926 13.8806 55.9214 12.5925C56.2068 11.9061 56.4922 10.652 56.4922 10.0503C56.4922 9.66053 56.5174 9.60969 56.9874 9.14362C57.2644 8.87245 57.5246 8.57586 57.575 8.49112C57.6589 8.33011 57.6505 8.33011 57.2224 8.47417C56.509 8.72839 56.4083 8.69449 56.7608 8.31316C57.021 8.04199 57.3316 7.5505 57.3316 7.40644C57.3316 7.38102 57.2057 7.42339 57.063 7.49966C56.9119 7.5844 56.5761 7.71151 56.3243 7.78777L55.8711 7.93183L55.4598 7.65219C55.2331 7.49966 54.9142 7.33018 54.7463 7.27933C54.3182 7.1607 53.6635 7.17764 53.2774 7.31323C52.2282 7.69456 51.5651 8.67755 51.6406 9.75375Z" fill="white"/>
<path opacity="0.1" fill-rule="evenodd" clip-rule="evenodd" d="M80 12C80 5.37258 85.3726 0 92 0C98.6274 0 104 5.37258 104 12C104 18.6274 98.6274 24 92 24C85.3726 24 80 18.6274 80 12Z" fill="white"/>
<path fill-rule="evenodd" clip-rule="evenodd" d="M97.0009 7.87469C97.5517 8.02582 97.9854 8.47113 98.1326 9.03663C98.4001 10.0615 98.4001 12.2 98.4001 12.2C98.4001 12.2 98.4001 14.3384 98.1326 15.3634C97.9854 15.9289 97.5517 16.3742 97.0009 16.5254C96.0028 16.8 92.0001 16.8 92.0001 16.8C92.0001 16.8 87.9974 16.8 86.9992 16.5254C86.4485 16.3742 86.0147 15.9289 85.8675 15.3634C85.6001 14.3384 85.6001 12.2 85.6001 12.2C85.6001 12.2 85.6001 10.0615 85.8675 9.03663C86.0147 8.47113 86.4485 8.02582 86.9992 7.87469C87.9974 7.60002 92.0001 7.60002 92.0001 7.60002C92.0001 7.60002 96.0028 7.60002 97.0009 7.87469ZM90.8001 10.4V14.4L94.0001 12.4001L90.8001 10.4Z" fill="white"/>
</g>
<defs>
<clipPath id="clip0_5_1180">
<rect width="104" height="24" fill="white"/>
</clipPath>
</defs>
</svg>
